<svg viewBox="0 0 128 128" xmlns="http://www.w3.org/2000/svg">
  <circle cx="64" cy="64" fill="#ff6c37" r="64"/>
  <path d="M87.677 60.588L73.54 74.725l-9.263-9.263L78.414 51.32a2.608 2.608 0 013.688 0l5.575 5.575a2.608 2.608 0 010 3.693z" fill="#fff"/>
  <path d="M64.277 65.462l9.263 9.263-25.894 25.894a2.608 2.608 0 01-3.688 0l-5.575-5.575a2.608 2.608 0 010-3.688z" fill="#fff"/>
  <path d="M62.54 52.857l11.603 11.603-9.263 9.263-11.603-11.603a6.543 6.543 0 010-9.263 6.543 6.543 0 019.263 0z" fill="#fff"/>
  <path d="M44.858 57.07l5.575 5.575a6.543 6.543 0 000-9.263l-2.787-2.787a2.608 2.608 0 00-3.688 0l-4.687 4.687a2.608 2.608 0 000 3.688z" fill="#fff" opacity=".5"/>
  <path d="M88.577 35.023l-5.575 5.575a2.608 2.608 0 000 3.688l2.787 2.787a6.543 6.543 0 009.263 0l-2.787-8.362a2.608 2.608 0 00-3.688-3.688z" fill="#fff" opacity=".5"/>
</svg>

