<svg viewBox="0 0 128 128" xmlns="http://www.w3.org/2000/svg">
  <rect fill="#3178c6" height="128" rx="6" width="128"/>
  <path clip-rule="evenodd" d="m74.2622 99.468v14.026c2.2724 1.168 4.9598 2.045 8.0625 2.629 3.1027.585 6.3728.877 9.8105.877 3.3503 0 6.533-.321 9.5478-.964 3.016-.643 5.659-1.702 7.932-3.178 2.272-1.476 4.071-3.404 5.397-5.786 1.325-2.381 1.988-5.325 1.988-8.8313 0-2.5421-.379-4.7701-1.136-6.6841-.758-1.9139-1.85-3.6159-3.278-5.1062-1.427-1.4902-3.139-2.827-5.134-4.0104-1.996-1.1834-4.246-2.3011-6.752-3.353-1.8-0.7574-3.416-1.4902-4.85-2.1983-1.434-.7082-2.654-1.4358-3.662-2.1827-.997-.7575-1.77-1.5719-2.313-2.4431-.543-.8712-.811-1.8574-.811-2.9588 0-1.0146.239-1.9259.721-2.7342.482-.8083 1.17-1.5063 2.067-2.0938.896-.5875 1.98-1.0437 3.252-1.3686 1.271-.3248 2.69-.4873 4.257-.4873 1.107 0 2.291.0807 3.551.2422 1.261.1615 2.541.4163 3.84.7646 1.3.3482 2.561.7866 3.785 1.3152 1.225.5765 2.381 1.2502 3.469 2.0208v-13.168c-2.098-.8192-4.394-1.4259-6.885-1.8198-2.491-.3939-5.319-.5909-8.483-.5909-3.335 0-6.494.353-9.4783 1.0584-2.9842.7053-5.6115 1.7973-7.8818 3.2759-2.2703 1.4786-4.0696 3.3642-5.3979 5.6569-1.3283 2.2926-1.9924 5.0075-1.9924 8.1447 0 4.193 1.2396 7.7533 3.7189 10.6808 2.4793 2.9276 6.2108 5.4141 11.1947 7.4596 1.8857.7709 3.6175 1.5377 5.1952 2.3003 1.5777.7626 2.9398 1.549 4.0863 2.3594 1.1464.8104 2.0487 1.6823 2.7067 2.6156.6581.9333.9871 1.9838.9871 3.1515 0 .9691-.2054 1.8481-.6161 2.637-.4107.7889-.9989 1.4634-1.7645 2.0236-.7656.5765-1.7071 1.0217-2.8238 1.3354-1.1167.3136-2.3847.4704-3.8039.4704-2.7351 0-5.4232-.4838-8.0623-1.4514-2.6392-.9676-5.0935-2.4026-7.3629-4.3048z" fill="#fff" fill-rule="evenodd"/>
  <path d="m22 57.147h21.352v9.325h-5.476v40.381h-10.399v-40.381h-5.477z" fill="#fff"/>
</svg>

