<svg viewBox="0 0 128 128" xmlns="http://www.w3.org/2000/svg">
  <rect fill="#3178c6" width="128" height="128" rx="6"/>
  <path fill="#fff" fill-rule="evenodd" d="M70.8 99.5V113c2.3 1.2 5 2 8 2.6 3.1.6 6.4.9 9.8.9 3.4 0 6.6-.3 9.6-1 3-.6 5.7-1.7 7.9-3.2 2.3-1.5 4-3.4 5.4-5.8 1.3-2.4 2-5.3 2-8.8 0-2.5-.4-4.8-1.1-6.7-.8-1.9-1.9-3.6-3.3-5.1-1.4-1.5-3.1-2.8-5.1-4-2-1.2-4.2-2.3-6.8-3.4-1.8-.7-3.4-1.5-4.8-2.2-1.4-.7-2.6-1.4-3.7-2.2-1-.7-1.8-1.6-2.3-2.4-.5-.9-.8-1.9-.8-3 0-1 .2-1.9.7-2.7.5-.8 1.2-1.5 2-2.1.9-.6 2-1 3.3-1.4 1.3-.3 2.7-.5 4.3-.5 1.1 0 2.3.1 3.5.2 1.3.2 2.5.4 3.8.8 1.3.3 2.6.8 3.8 1.3 1.2.6 2.4 1.3 3.5 2V52.2c-2.1-.8-4.4-1.4-6.9-1.8-2.5-.4-5.3-.6-8.5-.6-3.3 0-6.5.4-9.5 1.1-3 .7-5.6 1.8-7.9 3.3-2.3 1.5-4.1 3.4-5.4 5.7-1.3 2.3-2 5-2 8.1 0 4.2 1.2 7.8 3.7 10.7 2.5 2.9 6.2 5.4 11.2 7.5 1.9.8 3.6 1.5 5.2 2.3 1.6.8 2.9 1.6 4.1 2.4 1.2.8 2 1.7 2.7 2.6.7.9 1 2 1 3.2 0 1-.2 1.8-.6 2.6-.4.8-1 1.5-1.8 2-.8.6-1.7 1-2.8 1.3-1.1.3-2.4.5-3.8.5-2.7 0-5.4-.5-8.1-1.5-2.6-1-5-2.4-7.3-4.3zM54 61.7H35.6v-9.3h47v9.3H64.3V112H54V61.7z"/>
</svg>
